<?xml version="1.0" standalone="no"?>
<!DOCTYPE svg PUBLIC "-//W3C//DTD SVG 20010904//EN" "http://www.w3.org/TR/2001/REC-SVG-20010904/DTD/svg10.dtd">
<!-- Created using Krita: https://krita.org -->
<svg xmlns="http://www.w3.org/2000/svg" 
    xmlns:xlink="http://www.w3.org/1999/xlink"
    xmlns:krita="http://krita.org/namespaces/svg/krita"
    xmlns:sodipodi="http://sodipodi.sourceforge.net/DTD/sodipodi-0.dtd"
    width="621pt"
    height="898pt"
    viewBox="0 0 621 898">
<defs/>
<path id="shape0" transform="matrix(1.14669 0 0 1.14669 0.0735034400000245 0.858472000000006)" fill="#1a1a1a" fill-rule="evenodd" d="M327.297 41.7L365.5 41.7L365.5 684.7L0 684.7L0 41.7L56.661 41.7L56.742 40.737L56.927 39.148L57.163 37.576L57.45 36.023L57.785 34.489L58.169 32.975L58.6 31.482L59.078 30.012L59.601 28.565L60.168 27.142L60.78 25.744L61.434 24.372L62.13 23.027L62.866 21.71L63.643 20.422L64.459 19.164L65.314 17.936L66.205 16.741L67.133 15.579L68.096 14.45L69.094 13.356L70.126 12.297L71.19 11.276L72.287 10.292L73.414 9.346L74.571 8.441L75.758 7.575L76.972 6.751L78.214 5.97L79.482 5.232L80.776 4.538L82.094 3.89L83.436 3.288L84.801 2.734L86.188 2.227L87.595 1.77L89.023 1.363L90.469 1.007L91.934 0.704L93.417 0.453L94.915 0.256L96.429 0.115L97.958 0.029L99.5 0L101.042 0.029L102.571 0.115L104.085 0.256L105.583 0.453L107.066 0.704L108.531 1.007L109.977 1.363L111.405 1.77L112.812 2.227L114.199 2.734L115.564 3.288L116.906 3.89L118.224 4.538L119.518 5.232L120.786 5.97L122.028 6.751L123.242 7.575L124.429 8.441L125.586 9.346L126.713 10.292L127.81 11.276L128.874 12.297L129.906 13.356L130.904 14.45L131.867 15.579L132.795 16.741L133.686 17.936L134.541 19.164L135.357 20.422L136.134 21.71L136.87 23.027L137.566 24.372L138.22 25.744L138.832 27.142L139.399 28.565L139.922 30.012L140.4 31.482L140.831 32.975L141.215 34.489L141.55 36.023L141.837 37.576L142.073 39.148L142.258 40.737L142.339 41.7L327.297 41.7M440.5 41.7L512.832 41.7L514.37 41.744L515.885 41.876L517.377 42.093L518.842 42.392L520.28 42.772L521.688 43.229L523.063 43.763L524.403 44.37L525.707 45.049L526.972 45.796L528.197 46.61L529.378 47.488L530.514 48.429L531.603 49.429L532.642 50.487L533.63 51.6L534.564 52.766L535.442 53.982L536.263 55.247L537.023 56.558L537.721 57.913L538.354 59.31L538.921 60.745L539.42 62.218L539.847 63.725L540.202 65.264L540.481 66.834L540.683 68.431L540.806 70.054L540.848 71.7L540.848 654.7L540.806 656.346L540.683 657.969L540.481 659.566L540.202 661.136L539.847 662.675L539.42 664.182L538.921 665.655L538.354 667.09L537.721 668.487L537.023 669.842L536.263 671.153L535.442 672.418L534.564 673.634L533.63 674.8L532.642 675.913L531.603 676.971L530.514 677.971L529.378 678.912L528.197 679.79L526.972 680.604L525.707 681.351L524.403 682.03L523.063 682.637L521.688 683.171L520.28 683.628L518.842 684.008L517.377 684.307L515.885 684.524L514.37 684.656L512.832 684.7L440.5 684.7L440.5 41.7"/><path id="shape1" transform="matrix(1.14669 0 0 1.14669 56.0785934527311 760.263213562276)" fill="none" stroke="#1a1a1a" stroke-width="40" stroke-linecap="square" stroke-linejoin="bevel" d="M62.3996 0L45.5997 86.3995L0 100.799Z"/>
</svg>
